# xmcd CD database file
#
# Track frame offsets:
#	150
#	18654
#	35460
#	56887
#	75889
#	99383
#	123339
#	139844
#	158305
#	178322
#	196435
#	213227
#	240551
#	251762
#	272307
#	285718
#	296375
#	311613
#
# Disc length: 4432 seconds
#
# Revision: 0
# Processed by: cddbd v1.5.1PL0 Copyright (c) Steve Scherf et al.
# Submitted via: CDex 1.51
#
DISCID=f8114e12
DTITLE=Various Artist - Aus Deutschen Landen Blues Auf Den Tisch
DYEAR=1999
DGENRE=Blues
TTITLE0=Abi Wallenstein and Joja Went - Rocking Shoes
TTITLE1=Das Dritte Ohr - Zucker - Mamma
TTITLE2=Red Blood - Blues Company
TTITLE3=Real Stuff - Hamburg Blues Band
TTITLE4=Going Down Slow - Electric Blues Duo
TTITLE5=Don't Change Your Mind - Al Jones Blues Band
TTITLE6=Can't Fight What You See - Sunnyland Bluesband
TTITLE7=Tommy Schneller - T-bone Boogie
TTITLE8=Toscho - The Blues
TTITLE9=Rainer Baumann Band - Blues For James H - Howling At The Moon
TTITLE10=Time Out Bluesband - Lovehunter
TTITLE11=Foolhouse Bluesband - Did You Ever
TTITLE12=Tom Vieth - Bad Boy
TTITLE13=Orient Shuffle - Bluebyrds
TTITLE14=Gregor Hilden and Gans D. Riesop - Second Hand Blues
TTITLE15=Hootin' The Blues - Noesy Joe
TTITLE16=Pee Wee Bluesgang - You Give Me A Little Smile
TTITLE17=Cadillac Bluesband - Chicken Farm
EXTD=YEAR: 1999
EXTT0=
EXTT1=
EXTT2=
EXTT3=
EXTT4=
EXTT5=
EXTT6=
EXTT7=
EXTT8=
EXTT9=
EXTT10=
EXTT11=
EXTT12=
EXTT13=
EXTT14=
EXTT15=
EXTT16=
EXTT17=
PLAYORDER=
